<?xml version="1.0" encoding="UTF-8" standalone="no"?>
<!-- Generated by SVGMaker - https://svgmaker.io -->

<!-- Quality: medium -->

<!-- Type: convert -->

<!-- Created: 2025-12-10T23:32:52.246Z -->

<svg
   version="1.1"
   style="display:block"
   viewBox="0 0 2542.6704 856.9411"
   width="2542.6704"
   height="856.9411"
   preserveAspectRatio="none"
   id="svg6"
   sodipodi:docname="sf-logo-wordmark-combined.svg"
   inkscape:version="1.4.2 (f4327f4, 2025-05-13)"
   xmlns:inkscape="http://www.inkscape.org/namespaces/inkscape"
   xmlns:sodipodi="http://sodipodi.sourceforge.net/DTD/sodipodi-0.dtd"
   xmlns="http://www.w3.org/2000/svg"
   xmlns:svg="http://www.w3.org/2000/svg">
  <defs
     id="defs6">
    <rect
       x="1383.7411"
       y="195.33022"
       width="1790.8311"
       height="565.90991"
       id="rect7" />
  </defs>
  <sodipodi:namedview
     id="namedview6"
     pagecolor="#ffffff"
     bordercolor="#000000"
     borderopacity="0.25"
     inkscape:showpageshadow="2"
     inkscape:pageopacity="0.0"
     inkscape:pagecheckerboard="true"
     inkscape:deskcolor="#d1d1d1"
     showgrid="false"
     showguides="true"
     inkscape:zoom="0.54779034"
     inkscape:cx="1019.5507"
     inkscape:cy="5.4765478"
     inkscape:window-width="3840"
     inkscape:window-height="2436"
     inkscape:window-x="-12"
     inkscape:window-y="-12"
     inkscape:window-maximized="1"
     inkscape:current-layer="svg6">
    <sodipodi:guide
       position="-619.34604,1556.0101"
       orientation="1,0"
       id="guide8"
       inkscape:locked="false" />
  </sodipodi:namedview>
  <g
     id="g1"
     inkscape:label="backgrounds"
     transform="matrix(0.95518868,0,0,1.0106383,1366.0746,158.76807)"
     style="display:inline">
    <path
       fill="#ffffff"
       d="M -1503.446,-196.67577 H 1305.4231 V 730.46107 H -1503.446 Z"
       id="path1-6"
       style="display:inline;fill:#f4e9d8;fill-opacity:1;stroke-width:0.914943"
       inkscape:label="cream-paper" />
    <path
       fill="#ffffff"
       d="M -1503.446,-196.67577 H 1305.4231 V 730.46107 H -1503.446 Z"
       id="path2-1"
       style="display:inline;fill:#000000;fill-opacity:1;stroke-width:0.914942"
       inkscape:label="black" />
    <path
       fill="#ffffff"
       d="M -1503.446,-196.67577 H 1305.4231 V 730.46107 H -1503.446 Z"
       id="path3-8"
       style="display:inline;stroke-width:0.914943"
       inkscape:label="white" />
  </g>
  <g
     id="g7"
     transform="translate(-38.831959,-54.661906)">
    <path
       fill="rgb(76,155,211)"
       d="m 876.41216,190.53597 c 6.92515,-0.80463 29.84031,-0.27099 37.8225,-0.26714 l 78.06015,0.0365 261.42629,6.4e-4 c -4.5293,23.45969 -8.5652,49.2141 -25.8172,67.20157 -21.1214,22.0234 -50.5197,20.0112 -78.4253,20.01312 l -52.8836,-0.0231 c -67.9383,-0.0167 -137.24112,-0.74377 -205.0769,0.13517 -2.21657,1.84436 -5.68875,5.084 -6.4511,7.81755 -2.72906,9.74198 -4.49078,21.115 -6.29094,31.03444 l -11.76187,63.97729 c 47.74578,0.69444 97.13156,0.0461 145.00551,0.0487 l 184.8139,0.0333 c -4.1705,18.87794 -7.0469,38.3696 -11.2174,57.29814 -2.0756,9.43129 -4.2153,19.43593 -5.6887,28.95625 -40.0583,1.05447 -85.0878,0.0647 -125.4857,0.0679 l -293.5087,-0.15119 c 9.45562,-49.81884 17.96312,-100.61912 27.01515,-150.60645 L 795.277,275.5405 c 1.76813,-9.66062 3.98469,-22.57883 7.0725,-31.78205 3.44656,-10.23975 8.84063,-19.71587 15.89391,-27.9037 15.95797,-18.23987 35.09344,-23.73772 58.16875,-25.31878 z"
       id="path4"
       style="display:inline;fill:#d2b075;fill-opacity:1;stroke-width:0.640625" />
    <path
       fill="#4c9bd3"
       d="m 830.67922,55.076197 c 36.05438,-0.820833 74.71609,-0.168677 110.93703,-0.167844 l 228.13295,0.03402 c 32.7488,0.02018 76.3944,0.689505 108.9766,0.31743 -5.2787,29.120763 -10.7689,58.201287 -16.4705,87.240177 l -300.35686,0.009 -77.84875,-0.041 c -15.47109,-0.0135 -32.14656,-0.74184 -47.47031,1.05319 -40.64125,4.76113 -73.00563,38.02814 -84.79953,75.98838 -6.79063,21.86517 -10.17313,46.7195 -14.17704,69.42068 L 718.04453,400.86149 701.42339,501.7418 c -2.33828,13.33973 2.17428,-14.27225 -32.73088,203.02053 21.18919,-145.80409 -48.6954,-213.67857 -51.22223,-217.06832 4.77061,-30.16511 17.32439,-114.24551 22.52883,-145.15695 l 7.24355,-42.81104 c 1.06343,-6.15769 3.08781,-15.70621 3.72203,-21.5628 0.78797,-2.26269 4.11922,-23.50517 4.93922,-28.06322 3.67718,-20.5173 7.01484,-39.47467 12.21672,-59.76262 0.78156,-1.79568 1.71046,-4.99944 2.31906,-6.93093 4.63812,-14.82086 11.24937,-27.4322 19.35969,-40.64253 1.82526,-3.17388 -2.35885,4.30577 0.36515,-0.55029 23.50453,-39.16461 65.2925,-68.24963 108.88063,-80.943422 9.54531,-2.780056 23.9914,-3.301653 31.63406,-6.194011 z"
       id="path5"
       sodipodi:nodetypes="cccccccccccccccccccccccc"
       style="display:inline;fill:#d2b075;fill-opacity:1;stroke-width:0.640625" />
    <path
       fill="rgb(76,155,211)"
       d="m 844.9831,515.99461 c 15.38781,-0.43627 32.00562,-0.13902 47.4575,-0.14158 l 86.09359,-0.006 c 63.30661,-0.0115 127.82391,-0.68355 191.04081,0.11339 -7.6875,38.17036 -17.4763,76.31125 -61.9677,84.76109 -11.922,2.26333 -23.1394,1.78222 -35.1831,1.78799 l -40.1992,-0.005 -127.478,0.0621 c -22.06312,-6.4e-4 -50.23781,-0.81744 -71.64109,0.39142 -10.33328,7.9681 -10.42938,21.75242 -12.47297,33.95889 -2.08844,12.65107 -4.26656,25.2906 -6.52797,37.91091 -7.29031,40.09031 -21.08976,104.97435 -24.79987,120.09797 -12.3656,41.68188 -39.87302,73.17091 -43.34879,75.99433 -19.83375,20.07719 -33.04555,28.87387 -68.48781,36.98956 -9.80669,1.53026 -25.91572,3.21267 -38.2293,3.17423 l -79.65998,0.23947 c 21.771,-8.38578 42.63659,-20.03708 61.69134,-33.65037 25.81707,-18.77812 47.39396,-43.67967 58.05524,-62.18245 9.51892,-13.57927 24.39205,-41.57567 31.38101,-76.77962 l 12.3205,-58.91828 c 9.62219,-54.44864 19.90422,-109.11445 28.98188,-163.63612 28.45016,0.44972 64.80562,0.7995 92.97391,-0.16208 z"
       id="path6"
       style="display:inline;fill:#d2b075;fill-opacity:1;stroke-width:0.640625"
       sodipodi:nodetypes="cccccccccccccccccccccc" />
  </g>
  <g
     id="g6"
     transform="translate(-38.831959,-54.661906)">
    <path
       fill="rgb(16,61,109)"
       d="m 88.526784,772.61938 c 6.30375,-27.95688 9.473562,-52.19813 33.893546,-71.73719 31.25545,-25.0036 76.35033,-19.95547 114.19525,-20.00031 l 112.33359,-0.0256 c 20.77163,0 60.95804,3.40813 76.04796,-11.62094 5.62533,-5.6375 8.72467,-13.31218 8.5895,-21.27515 -0.15631,-19.9196 -22.33924,-28.18238 -37.67196,-35.11394 -8.65035,-3.91102 -17.77029,-7.47673 -26.53789,-11.21158 L 299.3033,571.79113 c -16.69469,-7.07314 -35.24783,-14.49222 -51.2327,-22.74988 -24.99271,-12.8298 -47.86622,-29.42326 -67.81977,-49.19872 -48.78231,-47.26083 -76.6495,-112.06069 -77.39967,-179.97783 -0.37284,-69.51357 27.25026,-136.25132 76.64053,-185.16753 34.37402,-34.907654 77.81223,-59.523029 125.42156,-71.074267 37.82827,-9.360812 77.9788,-8.504361 116.75647,-8.570409 l 91.94571,-0.05638 317.06373,0.08008 c -7.64266,2.892358 -22.08875,3.413955 -31.63407,6.194011 C 755.45697,73.964 713.669,103.04902 690.16447,142.21363 l -225.18401,-0.0237 -59.47883,-0.0448 c -6.60613,-0.004 -24.96324,-0.40424 -30.62444,0.615 -49.58566,2.12367 -95.29553,18.16812 -130.85598,53.8804 -32.15489,31.69557 -50.2186,74.98644 -50.13019,120.13641 0.25561,61.47758 33.53928,112.89799 85.65028,144.15152 19.74534,11.84259 45.00583,21.6102 66.56798,30.72693 l 73.90763,31.25482 c 27.19901,11.40504 52.71191,20.18609 74.0428,41.39526 21.86709,21.49553 34.24525,50.83232 34.38554,81.49583 -0.0275,70.50078 -58.25587,122.16078 -126.75406,125.69703 -13.65556,0.70469 -27.23105,0.96094 -40.90967,1.05063 l -66.09328,0.0705 z"
       id="path2"
       style="display:inline;fill:#a06a2c;fill-opacity:1;stroke-width:0.640625"
       sodipodi:nodetypes="ccccccccccccccccccccccccccccccccc" />
    <path
       fill="rgb(16,61,109)"
       d="m 38.831959,911.51969 c 5.171766,-26.13109 9.297135,-51.49984 28.793275,-71.41688 21.980484,-22.4539 54.432626,-20.69218 83.507386,-20.66015 l 59.63429,0.0192 174.10393,0.0256 c 14.7568,-0.0641 27.32458,-0.37156 42.03654,-2.7675 38.17292,-6.22047 76.74175,-24.4975 104.0202,-52.10844 C 562.97805,732.8109 580.64841,689.29965 579.8457,644.1548 579.48695,588.2654 549.96183,536.6227 501.98094,507.96049 484.74172,497.50101 457.48825,486.73082 438.29128,478.57374 L 356.5975,443.87369 c -27.83131,-11.75867 -52.75291,-20.85619 -74.67189,-42.57722 -22.51541,-21.92155 -35.31509,-51.947 -35.53931,-83.37094 -0.13389,-34.44576 13.67606,-63.78767 37.84684,-88.01034 17.343,-17.30456 39.14027,-29.46683 62.97408,-35.13764 22.42123,-5.30502 43.01348,-4.49527 65.79411,-4.48758 l 57.09762,0.0167 198.02168,0.0307 c -5.20188,20.28795 -8.53954,39.24532 -12.21672,59.76262 -0.82,4.55805 -4.15125,25.80053 -4.93922,28.06322 l -167.05578,-0.0961 c -32.53991,-0.0167 -65.11505,0.0474 -97.65175,-0.10635 -22.755,-0.10762 -47.93221,12.43133 -47.25507,38.24083 0.33633,9.70803 5.01738,18.75045 12.74972,24.62947 10.47422,8.09045 39.85521,19.87283 53.48322,25.76465 l 70.48413,30.2343 c 49.17181,20.85042 85.78865,35.00696 125.40875,73.16963 47.17818,45.44593 72.0024,104.28029 73.42459,169.62276 2.06922,68.93446 -23.41484,135.85414 -70.81597,185.95102 -34.604,36.45156 -78.53678,62.71719 -127.02312,75.94609 -39.03841,10.49985 -63.51221,9.49407 -102.76714,9.69907 l -64.08941,0.3075 -187.64269,0.0769 c -27.335468,-0.0256 -56.236624,-0.65344 -83.382211,-0.0833 z"
       id="path3"
       style="display:inline;fill:#a06a2c;fill-opacity:1;stroke-width:0.640625"
       sodipodi:nodetypes="cccccccccccccccccccccccccccccccccc" />
  </g>
  <text
     xml:space="preserve"
     style="font-style:normal;font-variant:normal;font-weight:500;font-stretch:normal;font-size:325.333px;font-family:'Avenir Next';-inkscape-font-specification:'Avenir Next, Medium';font-variant-ligatures:normal;font-variant-caps:normal;font-variant-numeric:normal;font-variant-east-asian:normal;text-align:start;writing-mode:lr-tb;direction:ltr;text-anchor:start;display:inline;fill:#a06a2c;fill-opacity:1;stroke-width:1"
     x="1358.2028"
     y="394.74695"
     id="text8-9"
     inkscape:label="Flow"><tspan
       sodipodi:role="line"
       id="tspan8-2"
       style="font-style:normal;font-variant:normal;font-weight:500;font-stretch:normal;font-size:325.333px;font-family:'Avenir Next';-inkscape-font-specification:'Avenir Next, Medium';font-variant-ligatures:normal;font-variant-caps:normal;font-variant-numeric:normal;font-variant-east-asian:normal;stroke-width:1"
       x="1358.2028"
       y="394.74695"
       dx="0 -27.936434 -29.116531 -28.895056 -31.476728 -25.041553 -11.93072 -35.017014">Semantic</tspan></text>
  <text
     xml:space="preserve"
     style="font-style:normal;font-variant:normal;font-weight:bold;font-stretch:normal;font-size:325.333px;font-family:'Avenir Next';-inkscape-font-specification:'Avenir Next, Bold';font-variant-ligatures:normal;font-variant-caps:normal;font-variant-numeric:normal;font-variant-east-asian:normal;text-align:start;writing-mode:lr-tb;direction:ltr;text-anchor:start;display:inline;fill:#a06a2c;fill-opacity:1;stroke-width:1"
     x="1343.2216"
     y="683.5575"
     id="text9-7"
     inkscape:label="Semantic"><tspan
       sodipodi:role="line"
       id="tspan9-9"
       style="font-style:normal;font-variant:normal;font-weight:bold;font-stretch:normal;font-size:325.333px;font-family:'Avenir Next';-inkscape-font-specification:'Avenir Next, Bold';font-variant-ligatures:normal;font-variant-caps:normal;font-variant-numeric:normal;font-variant-east-asian:normal;stroke-width:1"
       x="1343.2216"
       y="683.5575"
       dx="0 -21.482252 -24.487865 -20.726095">Flow</tspan></text>
</svg>
