<?xml version="1.0" encoding="UTF-8" standalone="no"?>
<!-- Generated by SVGMaker - https://svgmaker.io -->

<!-- Quality: medium -->

<!-- Type: convert -->

<!-- Created: 2025-12-10T23:32:52.246Z -->

<svg
   version="1.1"
   style="display: block;"
   viewBox="0 0 2048 1519"
   width="1312"
   height="973"
   preserveAspectRatio="none"
   id="svg6"
   sodipodi:docname="sf-monogram.svg"
   inkscape:version="1.4.2 (f4327f4, 2025-05-13)"
   xmlns:inkscape="http://www.inkscape.org/namespaces/inkscape"
   xmlns:sodipodi="http://sodipodi.sourceforge.net/DTD/sodipodi-0.dtd"
   xmlns="http://www.w3.org/2000/svg"
   xmlns:svg="http://www.w3.org/2000/svg">
  <defs
     id="defs6" />
  <sodipodi:namedview
     id="namedview6"
     pagecolor="#000000"
     bordercolor="#000000"
     borderopacity="0.25"
     inkscape:showpageshadow="2"
     inkscape:pageopacity="0.0"
     inkscape:pagecheckerboard="0"
     inkscape:deskcolor="#d1d1d1"
     showgrid="false"
     showguides="true"
     inkscape:zoom="0.77469253"
     inkscape:cx="-62.605483"
     inkscape:cy="943.60017"
     inkscape:window-width="3840"
     inkscape:window-height="2436"
     inkscape:window-x="-12"
     inkscape:window-y="-12"
     inkscape:window-maximized="1"
     inkscape:current-layer="g7" />
  <path
     fill="#ffffff"
     d="M 0,0 H 2048 V 1519 H 0 Z"
     id="path1"
     style="display:inline" />
  <g
     id="g7">
    <path
       fill="rgb(76,155,211)"
       d="m 1368.058,297.422 c 10.81,-1.256 46.58,-0.423 59.04,-0.417 l 121.85,0.057 408.08,10e-4 c -7.07,36.62 -13.37,76.822 -40.3,104.9 -32.97,34.378 -78.86,31.237 -122.42,31.24 l -82.55,-0.036 c -106.05,-0.026 -214.23,-1.161 -320.12,0.211 -3.46,2.879 -8.88,7.936 -10.07,12.203 -4.26,15.207 -7.01,32.96 -9.82,48.444 l -18.36,99.867 c 74.53,1.084 151.62,0.072 226.35,0.076 l 288.49,0.052 c -6.51,29.468 -11,59.894 -17.51,89.441 -3.24,14.722 -6.58,30.339 -8.88,45.2 -62.53,1.646 -132.82,0.101 -195.88,0.106 l -458.16,-0.236 c 14.76,-77.766 28.04,-157.064 42.17,-235.093 l 11.44,-63.326 c 2.76,-15.08 6.22,-35.245 11.04,-49.611 5.38,-15.984 13.8,-30.776 24.81,-43.557 24.91,-28.472 54.78,-37.054 90.8,-39.522 z"
       id="path4"
       style="display:inline;fill:#d2b075;fill-opacity:1" />
    <path
       fill="#4c9bd3"
       d="m 1296.67,85.9726 c 56.28,-1.2813 116.63,-0.2633 173.17,-0.262 l 356.11,0.0531 c 51.12,0.0315 119.2498,1.0763 170.1098,0.4955 -8.24,45.4568 -16.81,90.8508 -25.71,136.1798 l -468.8498,0.014 -121.52,-0.064 c -24.15,-0.021 -50.18,-1.158 -74.1,1.644 -63.44,7.432 -113.96,59.361 -132.37,118.616 -10.6,34.131 -15.88,72.928 -22.13,108.364 l -30.53,174.722 -25.9452,157.47171 c -3.65,20.823 3.394,-22.27864 -51.0921,316.91009 C 1076.8885,872.52018 967.80036,766.56977 963.85604,761.27846 973.44004,714.19146 990.899,582.944 999.023,534.692 l 11.307,-66.827 c 1.66,-9.612 4.82,-24.517 5.81,-33.659 1.23,-3.532 6.43,-36.691 7.71,-43.806 5.74,-32.027 10.95,-61.619 19.07,-93.288 1.22,-2.803 2.67,-7.804 3.62,-10.819 7.24,-23.135 17.56,-42.821 30.22,-63.442 2.8492,-4.95435 -3.6821,6.7212 0.57,-0.859 36.69,-61.135 101.92,-106.536 169.96,-126.3507 14.9,-4.3396 37.45,-5.1538 49.38,-9.6687 z"
       id="path5"
       sodipodi:nodetypes="cccccccccccccccccccccccc"
       style="display:inline;fill:#d2b075;fill-opacity:1" />
    <path
       fill="rgb(76,155,211)"
       d="m 1318.998,805.455 c 24.02,-0.681 49.96,-0.217 74.08,-0.221 l 134.39,-0.009 c 98.82,-0.018 199.53,-1.067 298.21,0.177 -12,59.583 -27.28,119.12 -96.73,132.31 -18.61,3.533 -36.12,2.782 -54.92,2.791 l -62.75,-0.008 -198.99,0.097 c -34.44,-10e-4 -78.42,-1.276 -111.83,0.611 -16.13,12.438 -16.28,33.955 -19.47,53.009 -3.26,19.748 -6.66,39.478 -10.19,59.178 -11.38,62.58 -32.9206,163.8624 -38.712,187.47 -19.3024,65.0644 -62.2408,114.218 -67.6664,118.6253 -30.96,31.34 -51.5833,45.0714 -106.9078,57.7398 -15.308,2.3887 -40.4538,5.0149 -59.675,4.9549 l -124.34728,0.3738 c 33.984,-13.09 66.55467,-31.2774 96.29867,-52.5274 40.29981,-29.3122 73.98081,-68.1829 90.62281,-97.0653 14.8588,-21.1969 38.0754,-64.8986 48.985,-119.8511 l 19.232,-91.97 c 15.02,-84.993 31.07,-170.325 45.24,-255.432 44.41,0.702 101.16,1.248 145.13,-0.253 z"
       id="path6"
       style="display:inline;fill:#d2b075;fill-opacity:1"
       sodipodi:nodetypes="cccccccccccccccccccccc" />
  </g>
  <g
     id="g6">
    <path
       fill="rgb(16,61,109)"
       d="m 138.18815,1206.04 c 9.84,-43.64 14.788,-81.48 52.907,-111.98 48.789,-39.03 119.181,-31.15 178.256,-31.22 l 175.35,-0.04 c 32.424,0 95.154,5.32 118.709,-18.14 8.781,-8.8 13.619,-20.78 13.408,-33.21 -0.244,-31.094 -34.871,-43.992 -58.805,-54.812 -13.503,-6.105 -27.739,-11.671 -41.425,-17.501 l -109.383,-46.585 c -26.06,-11.041 -55.021,-22.622 -79.973,-35.512 -39.013,-20.027 -74.718,-45.929 -105.865,-76.798 -76.148,-73.773 -119.648,-174.924 -120.819,-280.941 -0.582,-108.509 42.537,-212.685 119.634,-289.042 53.657,-54.49 121.463,-92.914 195.78,-110.9452 59.049,-14.612 121.723,-13.2751 182.254,-13.3782 l 143.525,-0.088 494.92875,0.125 c -11.93,4.5149 -34.48,5.3291 -49.38,9.6687 -68.04,19.8147 -133.27,65.2157 -169.96,126.3507 l -351.50675,-0.037 -92.845,-0.07 c -10.312,-0.007 -38.967,-0.631 -47.804,0.96 -77.402,3.315 -148.754,28.36 -204.263,84.106 -50.193,49.476 -78.39,117.052 -78.252,187.53 0.399,95.965 52.354,176.231 133.698,225.017 30.822,18.486 70.253,33.733 103.911,47.964 l 115.368,48.788 c 42.457,17.803 82.282,31.51 115.579,64.617 34.134,33.554 53.456,79.348 53.675,127.213 -0.043,110.05 -90.936,190.69 -197.86,196.21 -21.316,1.1 -42.507,1.5 -63.859,1.64 l -103.17,0.11 z"
       id="path2"
       style="display:inline;fill:#a06a2c;fill-opacity:1"
       sodipodi:nodetypes="ccccccccccccccccccccccccccccccccc" />
    <path
       fill="rgb(16,61,109)"
       d="m 60.615741,1422.86 c 8.073,-40.79 14.5126,-80.39 44.945599,-111.48 34.311,-35.05 84.968,-32.3 130.353,-32.25 l 93.08766,0.03 271.772,0.04 c 23.035,-0.1 42.653,-0.58 65.618,-4.32 59.587,-9.71 119.792,-38.24 162.373,-81.34 50.03,-49.64 77.613,-117.56 76.36,-188.03 C 904.565,918.268 858.477,837.655 783.58,792.914 756.67,776.587 714.128,759.775 684.162,747.042 L 556.64,692.876 c -43.444,-18.355 -82.346,-32.556 -116.561,-66.462 -35.146,-34.219 -55.126,-81.088 -55.476,-130.14 -0.209,-53.769 21.348,-99.571 59.078,-137.382 27.072,-27.012 61.097,-45.997 98.301,-54.849 34.999,-8.281 67.143,-7.017 102.703,-7.005 l 89.128,0.026 309.107,0.048 c -8.12,31.669 -13.33,61.261 -19.07,93.288 -1.28,7.115 -6.48,40.274 -7.71,43.806 l -260.77,-0.15 c -50.794,-0.026 -101.643,0.074 -152.432,-0.166 -35.52,-0.168 -74.821,19.405 -73.764,59.693 0.525,15.154 7.832,29.269 19.902,38.446 16.35,12.629 62.213,31.021 83.486,40.218 l 110.024,47.195 c 76.756,32.547 133.914,54.645 195.76,114.216 73.644,70.94 112.394,162.779 114.614,264.777 3.23,107.605 -36.55,212.065 -110.542,290.265 -54.016,56.9 -122.594,97.9 -198.28,118.55 -60.938,16.39 -99.141,14.82 -160.417,15.14 l -100.042,0.48 -292.90566,0.12 c -42.67,-0.04 -87.784,-1.02 -130.157599,-0.13 z"
       id="path3"
       style="display:inline;fill:#a06a2c;fill-opacity:1"
       sodipodi:nodetypes="cccccccccccccccccccccccccccccccccc" />
  </g>
</svg>
