<?xml version="1.0" encoding="UTF-8" standalone="no"?>
<!-- Generated by SVGMaker - https://svgmaker.io -->

<!-- Quality: medium -->

<!-- Type: convert -->

<!-- Created: 2025-12-10T23:32:52.246Z -->

<svg
   version="1.1"
   style="display:block"
   viewBox="0 0 1239.8961 856.94257"
   width="1239.8961"
   height="856.94257"
   preserveAspectRatio="none"
   id="svg6"
   sodipodi:docname="sf-monogram.svg"
   inkscape:version="1.4.2 (f4327f4, 2025-05-13)"
   xmlns:inkscape="http://www.inkscape.org/namespaces/inkscape"
   xmlns:sodipodi="http://sodipodi.sourceforge.net/DTD/sodipodi-0.dtd"
   xmlns="http://www.w3.org/2000/svg"
   xmlns:svg="http://www.w3.org/2000/svg">
  <defs
     id="defs6" />
  <sodipodi:namedview
     id="namedview6"
     pagecolor="#f4e9d8"
     bordercolor="#000000"
     borderopacity="0.25"
     inkscape:showpageshadow="2"
     inkscape:pageopacity="0.0"
     inkscape:pagecheckerboard="true"
     inkscape:deskcolor="#d1d1d1"
     showgrid="false"
     showguides="true"
     inkscape:zoom="0.77469253"
     inkscape:cx="-239.44984"
     inkscape:cy="-27.107529"
     inkscape:window-width="3840"
     inkscape:window-height="2436"
     inkscape:window-x="-12"
     inkscape:window-y="-12"
     inkscape:window-maximized="1"
     inkscape:current-layer="svg6" />
  <path
     fill="#ffffff"
     d="M -38.832027,-54.662002 H 1273.1703 V 918.44908 H -38.832027 Z"
     id="path1"
     style="display:none;stroke-width:0.640626" />
  <g
     id="g7"
     transform="translate(-38.832027,-54.662002)">
    <path
       fill="rgb(76,155,211)"
       d="m 876.4137,190.5363 c 6.92517,-0.80462 29.84036,-0.27098 37.82256,-0.26714 l 78.0603,0.0365 261.42674,6.4e-4 c -4.5293,23.45973 -8.5652,49.21418 -25.8173,67.20168 -21.1214,22.02344 -50.5197,20.01124 -78.4254,20.01316 l -52.8837,-0.0231 c -67.9384,-0.0167 -137.24134,-0.74377 -205.07724,0.13517 -2.21657,1.84436 -5.68876,5.08401 -6.4511,7.81756 -2.72907,9.742 -4.49079,21.11504 -6.29095,31.03449 l -11.7619,63.97741 c 47.74587,0.69444 97.13173,0.0461 145.00569,0.0487 l 184.8143,0.0333 c -4.1705,18.87797 -7.0469,38.36966 -11.2174,57.29824 -2.0756,9.4313 -4.2153,19.43596 -5.6888,28.9563 -40.0583,1.05447 -85.0879,0.0647 -125.4858,0.0679 l -293.50927,-0.15119 c 9.45564,-49.81893 17.96316,-100.6193 27.01521,-150.60672 l 7.32876,-40.56829 c 1.76813,-9.66064 3.98469,-22.57886 7.07251,-31.7821 3.44657,-10.23977 8.84064,-19.71591 15.89393,-27.90375 15.958,-18.23991 35.0935,-23.73776 58.16886,-25.31883 z"
       id="path4"
       style="display:inline;fill:#d2b075;fill-opacity:1;stroke-width:0.640626" />
    <path
       fill="#4c9bd3"
       d="m 830.68068,55.076294 c 36.05444,-0.820835 74.71622,-0.168677 110.93723,-0.167844 l 228.13339,0.03402 c 32.7488,0.02018 76.3945,0.689506 108.9768,0.31743 -5.2788,29.120814 -10.769,58.20139 -16.4705,87.24033 l -300.35747,0.009 -77.84889,-0.041 c -15.47112,-0.0135 -32.14662,-0.74184 -47.47039,1.05319 -40.64133,4.76114 -73.00576,38.02821 -84.79968,75.98851 -6.79064,21.86521 -10.17315,46.71958 -14.17706,69.42081 l -19.55832,111.93148 -16.62117,100.88049 c -2.33828,13.33976 2.17429,-14.27228 -32.73093,203.02088 21.18922,-145.80434 -49.8453,-215.39878 -52.37214,-218.78853 18.34792,-110.38294 18.47424,-112.52587 23.67868,-143.43737 l 7.24356,-42.81112 c 1.06344,-6.1577 3.08782,-15.70623 3.72204,-21.56283 0.78797,-2.26269 4.11923,-23.50522 4.93923,-28.06327 3.67719,-20.51733 7.01486,-39.47474 12.21674,-59.76273 0.78156,-1.79568 1.71047,-4.99945 2.31907,-6.93093 4.63813,-14.82089 11.24939,-27.43226 19.35972,-40.64261 1.82527,-3.17388 -2.35885,4.30578 0.36515,-0.5503 23.50458,-39.16467 65.29262,-68.249737 108.88082,-80.943552 9.54533,-2.780061 23.99145,-3.301658 31.63412,-6.194021 z"
       id="path5"
       sodipodi:nodetypes="ccccccccccccccccccccccccc"
       style="display:inline;fill:#d2b075;fill-opacity:1;stroke-width:0.640626" />
    <path
       fill="rgb(76,155,211)"
       d="m 844.98458,515.99552 c 15.38784,-0.43627 32.00568,-0.13902 47.45758,-0.14158 l 86.09375,-0.006 c 63.30669,-0.0115 127.82409,-0.68355 191.04109,0.11339 -7.6875,38.17043 -17.4763,76.31139 -61.9677,84.76125 -11.9221,2.26333 -23.1395,1.78222 -35.1832,1.78798 l -40.1993,-0.005 -127.47821,0.0621 c -22.06316,-6.4e-4 -50.2379,-0.81744 -71.64122,0.39142 -10.3333,7.96811 -10.42939,21.75246 -12.47299,33.95895 -2.08844,12.65109 -4.26657,25.29064 -6.52798,37.91097 -7.29033,40.09039 -21.0898,104.97454 -24.79992,120.09818 -12.36562,41.68196 -39.87308,73.17104 -43.34886,75.99447 -19.83379,20.07722 -33.04561,28.87392 -68.48793,36.98962 -9.80671,1.53027 -25.91576,3.21268 -38.22937,3.17424 l -79.66011,0.23947 c 21.77104,-8.3858 42.63666,-20.03712 61.69144,-33.65043 25.81711,-18.77816 47.39404,-43.67974 58.05534,-62.18256 9.51894,-13.57929 24.3921,-41.57574 31.38107,-76.77975 l 12.32052,-58.91838 c 9.62221,-54.44874 19.90426,-109.11465 28.98193,-163.63642 28.45021,0.44972 64.80574,0.79951 92.97407,-0.16207 z"
       id="path6"
       style="display:inline;fill:#d2b075;fill-opacity:1;stroke-width:0.640626"
       sodipodi:nodetypes="cccccccccccccccccccccc" />
  </g>
  <g
     id="g6"
     transform="translate(-38.832027,-54.662002)">
    <path
       fill="rgb(16,61,109)"
       d="m 88.526939,772.62073 c 6.303761,-27.95692 9.473579,-52.19821 33.893611,-71.73731 31.2555,-25.00364 76.35046,-19.9555 114.19545,-20.00035 l 112.33379,-0.0256 c 20.77166,0 60.95814,3.40813 76.04808,-11.62096 5.62534,-5.63751 8.72469,-13.31221 8.58952,-21.2752 -0.15631,-19.91962 -22.33927,-28.18242 -37.67202,-35.11399 -8.65037,-3.91103 -17.77033,-7.47675 -26.53794,-11.2116 l -70.0736,-29.84357 c -16.69472,-7.07315 -35.24789,-14.49224 -51.2328,-22.74992 -24.99274,-12.82981 -47.8663,-29.42331 -67.81988,-49.1988 -48.7824,-47.26091 -76.64964,-112.06088 -77.39981,-179.97814 -0.37285,-69.51371 27.25031,-136.25157 76.64067,-185.16786 34.37407,-34.907719 77.81237,-59.523137 125.42178,-71.074395 37.82833,-9.360829 77.97893,-8.504376 116.75667,-8.570425 l 91.94587,-0.05638 317.06428,0.08008 c -7.64266,2.892363 -22.08878,3.41396 -31.63411,6.194021 C 755.4583,73.96413 713.67025,103.0492 690.16568,142.21387 l -225.18441,-0.0237 -59.47893,-0.0448 c -6.60614,-0.004 -24.96328,-0.40424 -30.62449,0.615 -49.58574,2.12367 -95.2957,18.16816 -130.85622,53.8805 -32.15494,31.69562 -50.21868,74.98657 -50.13027,120.13662 0.25561,61.47768 33.53934,112.89818 85.65043,144.15177 19.74538,11.84261 45.00591,21.61024 66.5681,30.72699 l 73.90776,31.25486 c 27.19906,11.40507 52.712,20.18613 74.04292,41.39534 21.86714,21.49557 34.24531,50.83241 34.38561,81.49597 -0.0276,70.50091 -58.25598,122.161 -126.75428,125.69726 -13.65559,0.70469 -27.2311,0.96094 -40.90975,1.05062 l -66.0934,0.0705 z"
       id="path2"
       style="display:inline;fill:#a06a2c;fill-opacity:1;stroke-width:0.640626"
       sodipodi:nodetypes="ccccccccccccccccccccccccccccccccc" />
    <path
       fill="rgb(16,61,109)"
       d="m 38.832027,911.52129 c 5.171775,-26.13114 9.297151,-51.49994 28.793325,-71.417 21.980523,-22.45395 54.432718,-20.69223 83.507538,-20.66019 l 59.63439,0.0192 174.10424,0.0256 c 14.75682,-0.0641 27.32463,-0.37156 42.03661,-2.76751 38.17298,-6.22047 76.74188,-24.49754 104.02038,-52.10852 32.05053,-31.80069 49.72092,-75.31201 48.91821,-120.45693 -0.35875,-55.88951 -29.88393,-107.5323 -77.8649,-136.19456 -17.23925,-10.4595 -44.49277,-21.22971 -63.68977,-29.3868 l -81.69392,-34.70015 c -27.83136,-11.7587 -52.753,-20.85623 -74.67203,-42.5773 -22.51544,-21.92158 -35.31515,-51.94709 -35.53937,-83.37108 -0.13389,-34.44583 13.67609,-63.78778 37.84691,-88.0105 17.34303,-17.30459 39.14033,-29.46688 62.97419,-35.1377 22.42127,-5.30503 43.01356,-4.49527 65.79422,-4.48759 l 57.09773,0.0167 198.02202,0.0307 c -5.20188,20.28799 -8.53955,39.2454 -12.21674,59.76273 -0.82,4.55805 -4.15126,25.80058 -4.93923,28.06327 l -167.05607,-0.0961 c -32.53997,-0.0167 -65.11516,0.0474 -97.65192,-0.10634 -22.75504,-0.10763 -47.93229,12.43135 -47.25515,38.24089 0.33633,9.70805 5.01738,18.75049 12.74974,24.62952 10.47424,8.09046 39.85527,19.87286 53.48331,25.7647 l 70.48425,30.23435 c 49.1719,20.85046 85.78881,35.00701 125.40897,73.16975 47.17827,45.44602 72.00254,104.28048 73.42473,169.62307 2.06922,68.93457 -23.41489,135.85437 -70.8161,185.95134 -34.60406,36.45162 -78.53692,62.7173 -127.02335,75.94623 -39.03847,10.49986 -63.51231,9.49407 -102.76732,9.69907 l -64.08952,0.30751 -187.64301,0.0769 c -27.335521,-0.0256 -56.236728,-0.65344 -83.382363,-0.0833 z"
       id="path3"
       style="display:inline;fill:#a06a2c;fill-opacity:1;stroke-width:0.640626"
       sodipodi:nodetypes="cccccccccccccccccccccccccccccccccc" />
  </g>
</svg>
